# MagicaVoxel @ Ephtracy

# group
o 

# material
mtllib GreenFlowers.mtl
usemtl palette

# normals
vn -1 0 0
vn 1 0 0
vn 0 0 1
vn 0 0 -1
vn 0 -1 0
vn 0 1 0

# texcoords
vt 0.970703 0.5
vt 0.978516 0.5

# verts
v -1.8 0.6 1.2
v -1.8 0.6 1.1
v -1.8 0.8 1.2
v -1.8 0.8 1.1
v -1.7 0.5 1.2
v -1.7 0.5 1.1
v -1.7 0.6 1.2
v -1.7 0.6 1.1
v -1.6 0.3 1.2
v -1.6 0.3 1.1
v -1.6 0.4 1.2
v -1.6 0.4 1.1
v -1.6 0.7 1.2
v -1.6 0.7 1.1
v -1.6 0.8 1.2
v -1.6 0.8 1.1
v -1.5 0 1.2
v -1.5 0 1.1
v -1.5 0.3 1.2
v -1.5 0.3 1.1
v -1.5 0.4 1.2
v -1.5 0.4 1.1
v -1.5 0.5 1.2
v -1.5 0.5 1.1
v -1.5 0.8 1.2
v -1.5 0.8 1.1
v -1.5 0.9 1.2
v -1.5 0.9 1.1
v -1.2 0.7 1.2
v -1.2 0.7 1.1
v -1.2 0.8 1.2
v -1.2 0.8 1.1
v -0.9 0.5 -0.4
v -0.9 0.5 -0.5
v -0.9 0.7 -0.4
v -0.9 0.7 -0.5
v -0.8 0.4 -0.4
v -0.8 0.4 -0.5
v -0.8 0.5 -0.4
v -0.8 0.5 -0.5
v -0.7 0.2 -0.4
v -0.7 0.2 -0.5
v -0.7 0.3 -0.4
v -0.7 0.3 -0.5
v -0.7 0.6 -0.4
v -0.7 0.6 -0.5
v -0.7 0.7 -0.4
v -0.7 0.7 -0.5
v -0.6 0 -0.4
v -0.6 0 -0.5
v -0.6 0.2 -0.4
v -0.6 0.2 -0.5
v -0.6 0.3 -0.4
v -0.6 0.3 -0.5
v -0.6 0.4 -0.4
v -0.6 0.4 -0.5
v -0.6 0.7 -0.4
v -0.6 0.7 -0.5
v -0.6 0.8 -0.4
v -0.6 0.8 -0.5
v -0.3 0.6 -0.4
v -0.3 0.6 -0.5
v -0.3 0.7 -0.4
v -0.3 0.7 -0.5
v 1.1 0.7 -1.1
v 1.1 0.7 -1.2
v 1.1 0.9 -1.1
v 1.1 0.9 -1.2
v 1.2 0.6 -1.1
v 1.2 0.6 -1.2
v 1.2 0.7 -1.1
v 1.2 0.7 -1.2
v 1.3 0.3 -1.1
v 1.3 0.3 -1.2
v 1.3 0.4 -1.1
v 1.3 0.4 -1.2
v 1.3 0.8 -1.1
v 1.3 0.8 -1.2
v 1.3 0.9 -1.1
v 1.3 0.9 -1.2
v 1.4 0 -1.1
v 1.4 0 -1.2
v 1.4 0.3 -1.1
v 1.4 0.3 -1.2
v 1.4 0.4 -1.1
v 1.4 0.4 -1.2
v 1.4 0.6 -1.1
v 1.4 0.6 -1.2
v 1.4 0.9 -1.1
v 1.4 0.9 -1.2
v 1.4 1 -1.1
v 1.4 1 -1.2
v 1.5 0.5 0.8
v 1.5 0.5 0.7
v 1.5 0.7 0.8
v 1.5 0.7 0.7
v 1.6 0.4 0.8
v 1.6 0.4 0.7
v 1.6 0.5 0.8
v 1.6 0.5 0.7
v 1.7 0.1 0.8
v 1.7 0.1 0.7
v 1.7 0.2 0.8
v 1.7 0.2 0.7
v 1.7 0.6 0.8
v 1.7 0.6 0.7
v 1.7 0.7 0.8
v 1.7 0.7 0.7
v 1.7 0.8 -1.1
v 1.7 0.8 -1.2
v 1.7 0.9 -1.1
v 1.7 0.9 -1.2
v 1.8 0 0.8
v 1.8 0 0.7
v 1.8 0.1 0.8
v 1.8 0.1 0.7
v 1.8 0.2 0.8
v 1.8 0.2 0.7
v 1.8 0.4 0.8
v 1.8 0.4 0.7
v 1.8 0.7 0.8
v 1.8 0.7 0.7
v 1.8 0.8 0.8
v 1.8 0.8 0.7
v 2.1 0.6 0.8
v 2.1 0.6 0.7
v 2.1 0.7 0.8
v 2.1 0.7 0.7
v -1.7 0.7 1.2
v -1.7 0.7 1.1
v -1.7 0.8 1.2
v -1.7 0.8 1.1
v -1.4 0 1.2
v -1.4 0 1.1
v -1.4 0.2 1.2
v -1.4 0.2 1.1
v -1.4 0.3 1.2
v -1.4 0.3 1.1
v -1.4 0.5 1.2
v -1.4 0.5 1.1
v -1.4 0.8 1.2
v -1.4 0.8 1.1
v -1.4 0.9 1.2
v -1.4 0.9 1.1
v -1.3 0.2 1.2
v -1.3 0.2 1.1
v -1.3 0.3 1.2
v -1.3 0.3 1.1
v -1.3 0.7 1.2
v -1.3 0.7 1.1
v -1.3 0.8 1.2
v -1.3 0.8 1.1
v -1.2 0.5 1.2
v -1.2 0.5 1.1
v -1.2 0.6 1.2
v -1.2 0.6 1.1
v -1.1 0.6 1.2
v -1.1 0.6 1.1
v -1.1 0.8 1.2
v -1.1 0.8 1.1
v -0.8 0.6 -0.4
v -0.8 0.6 -0.5
v -0.8 0.7 -0.4
v -0.8 0.7 -0.5
v -0.5 0 -0.4
v -0.5 0 -0.5
v -0.5 0.1 -0.4
v -0.5 0.1 -0.5
v -0.5 0.2 -0.4
v -0.5 0.2 -0.5
v -0.5 0.4 -0.4
v -0.5 0.4 -0.5
v -0.5 0.7 -0.4
v -0.5 0.7 -0.5
v -0.5 0.8 -0.4
v -0.5 0.8 -0.5
v -0.4 0.1 -0.4
v -0.4 0.1 -0.5
v -0.4 0.2 -0.4
v -0.4 0.2 -0.5
v -0.4 0.6 -0.4
v -0.4 0.6 -0.5
v -0.4 0.7 -0.4
v -0.4 0.7 -0.5
v -0.3 0.4 -0.4
v -0.3 0.4 -0.5
v -0.3 0.5 -0.4
v -0.3 0.5 -0.5
v -0.2 0.5 -0.4
v -0.2 0.5 -0.5
v -0.2 0.7 -0.4
v -0.2 0.7 -0.5
v 1.2 0.8 -1.1
v 1.2 0.8 -1.2
v 1.2 0.9 -1.1
v 1.2 0.9 -1.2
v 1.5 0 -1.1
v 1.5 0 -1.2
v 1.5 0.4 -1.1
v 1.5 0.4 -1.2
v 1.5 0.5 -1.1
v 1.5 0.5 -1.2
v 1.5 0.6 -1.1
v 1.5 0.6 -1.2
v 1.5 0.9 -1.1
v 1.5 0.9 -1.2
v 1.5 1 -1.1
v 1.5 1 -1.2
v 1.6 0.4 -1.1
v 1.6 0.4 -1.2
v 1.6 0.5 -1.1
v 1.6 0.5 -1.2
v 1.6 0.6 0.8
v 1.6 0.6 0.7
v 1.6 0.7 0.8
v 1.6 0.7 0.7
v 1.6 0.8 -1.1
v 1.6 0.8 -1.2
v 1.6 0.9 -1.1
v 1.6 0.9 -1.2
v 1.7 0.6 -1.1
v 1.7 0.6 -1.2
v 1.7 0.7 -1.1
v 1.7 0.7 -1.2
v 1.8 0.7 -1.1
v 1.8 0.7 -1.2
v 1.8 0.9 -1.1
v 1.8 0.9 -1.2
v 1.9 0 0.8
v 1.9 0 0.7
v 1.9 0.2 0.8
v 1.9 0.2 0.7
v 1.9 0.3 0.8
v 1.9 0.3 0.7
v 1.9 0.4 0.8
v 1.9 0.4 0.7
v 1.9 0.7 0.8
v 1.9 0.7 0.7
v 1.9 0.8 0.8
v 1.9 0.8 0.7
v 2 0.2 0.8
v 2 0.2 0.7
v 2 0.3 0.8
v 2 0.3 0.7
v 2 0.6 0.8
v 2 0.6 0.7
v 2 0.7 0.8
v 2 0.7 0.7
v 2.1 0.4 0.8
v 2.1 0.4 0.7
v 2.1 0.5 0.8
v 2.1 0.5 0.7
v 2.2 0.5 0.8
v 2.2 0.5 0.7
v 2.2 0.7 0.8
v 2.2 0.7 0.7
v -1.8 0.6 1.2
v -1.8 0.8 1.2
v -1.7 0.5 1.2
v -1.7 0.6 1.2
v -1.7 0.7 1.2
v -1.7 0.8 1.2
v -1.6 0.3 1.2
v -1.6 0.4 1.2
v -1.6 0.7 1.2
v -1.6 0.8 1.2
v -1.5 0 1.2
v -1.5 0.3 1.2
v -1.5 0.4 1.2
v -1.5 0.5 1.2
v -1.5 0.8 1.2
v -1.5 0.9 1.2
v -1.4 0 1.2
v -1.4 0.2 1.2
v -1.4 0.3 1.2
v -1.4 0.5 1.2
v -1.4 0.8 1.2
v -1.4 0.9 1.2
v -1.3 0.2 1.2
v -1.3 0.3 1.2
v -1.3 0.7 1.2
v -1.3 0.8 1.2
v -1.2 0.5 1.2
v -1.2 0.6 1.2
v -1.2 0.7 1.2
v -1.2 0.8 1.2
v -1.1 0.6 1.2
v -1.1 0.8 1.2
v 1.5 0.5 0.8
v 1.5 0.7 0.8
v 1.6 0.4 0.8
v 1.6 0.5 0.8
v 1.6 0.6 0.8
v 1.6 0.7 0.8
v 1.7 0.1 0.8
v 1.7 0.2 0.8
v 1.7 0.6 0.8
v 1.7 0.7 0.8
v 1.8 0 0.8
v 1.8 0.1 0.8
v 1.8 0.2 0.8
v 1.8 0.4 0.8
v 1.8 0.7 0.8
v 1.8 0.8 0.8
v 1.9 0 0.8
v 1.9 0.2 0.8
v 1.9 0.3 0.8
v 1.9 0.4 0.8
v 1.9 0.7 0.8
v 1.9 0.8 0.8
v 2 0.2 0.8
v 2 0.3 0.8
v 2 0.6 0.8
v 2 0.7 0.8
v 2.1 0.4 0.8
v 2.1 0.5 0.8
v 2.1 0.6 0.8
v 2.1 0.7 0.8
v 2.2 0.5 0.8
v 2.2 0.7 0.8
v -0.9 0.5 -0.4
v -0.9 0.7 -0.4
v -0.8 0.4 -0.4
v -0.8 0.5 -0.4
v -0.8 0.6 -0.4
v -0.8 0.7 -0.4
v -0.7 0.2 -0.4
v -0.7 0.3 -0.4
v -0.7 0.6 -0.4
v -0.7 0.7 -0.4
v -0.6 0 -0.4
v -0.6 0.2 -0.4
v -0.6 0.3 -0.4
v -0.6 0.4 -0.4
v -0.6 0.7 -0.4
v -0.6 0.8 -0.4
v -0.5 0 -0.4
v -0.5 0.1 -0.4
v -0.5 0.2 -0.4
v -0.5 0.4 -0.4
v -0.5 0.7 -0.4
v -0.5 0.8 -0.4
v -0.4 0.1 -0.4
v -0.4 0.2 -0.4
v -0.4 0.6 -0.4
v -0.4 0.7 -0.4
v -0.3 0.4 -0.4
v -0.3 0.5 -0.4
v -0.3 0.6 -0.4
v -0.3 0.7 -0.4
v -0.2 0.5 -0.4
v -0.2 0.7 -0.4
v 1.1 0.7 -1.1
v 1.1 0.9 -1.1
v 1.2 0.6 -1.1
v 1.2 0.7 -1.1
v 1.2 0.8 -1.1
v 1.2 0.9 -1.1
v 1.3 0.3 -1.1
v 1.3 0.4 -1.1
v 1.3 0.8 -1.1
v 1.3 0.9 -1.1
v 1.4 0 -1.1
v 1.4 0.3 -1.1
v 1.4 0.4 -1.1
v 1.4 0.6 -1.1
v 1.4 0.9 -1.1
v 1.4 1 -1.1
v 1.5 0 -1.1
v 1.5 0.4 -1.1
v 1.5 0.5 -1.1
v 1.5 0.6 -1.1
v 1.5 0.9 -1.1
v 1.5 1 -1.1
v 1.6 0.4 -1.1
v 1.6 0.5 -1.1
v 1.6 0.8 -1.1
v 1.6 0.9 -1.1
v 1.7 0.6 -1.1
v 1.7 0.7 -1.1
v 1.7 0.8 -1.1
v 1.7 0.9 -1.1
v 1.8 0.7 -1.1
v 1.8 0.9 -1.1
v -1.8 0.6 1.1
v -1.8 0.8 1.1
v -1.7 0.5 1.1
v -1.7 0.6 1.1
v -1.7 0.7 1.1
v -1.7 0.8 1.1
v -1.6 0.3 1.1
v -1.6 0.4 1.1
v -1.6 0.7 1.1
v -1.6 0.8 1.1
v -1.5 0 1.1
v -1.5 0.3 1.1
v -1.5 0.4 1.1
v -1.5 0.5 1.1
v -1.5 0.8 1.1
v -1.5 0.9 1.1
v -1.4 0 1.1
v -1.4 0.2 1.1
v -1.4 0.3 1.1
v -1.4 0.5 1.1
v -1.4 0.8 1.1
v -1.4 0.9 1.1
v -1.3 0.2 1.1
v -1.3 0.3 1.1
v -1.3 0.7 1.1
v -1.3 0.8 1.1
v -1.2 0.5 1.1
v -1.2 0.6 1.1
v -1.2 0.7 1.1
v -1.2 0.8 1.1
v -1.1 0.6 1.1
v -1.1 0.8 1.1
v 1.5 0.5 0.7
v 1.5 0.7 0.7
v 1.6 0.4 0.7
v 1.6 0.5 0.7
v 1.6 0.6 0.7
v 1.6 0.7 0.7
v 1.7 0.1 0.7
v 1.7 0.2 0.7
v 1.7 0.6 0.7
v 1.7 0.7 0.7
v 1.8 0 0.7
v 1.8 0.1 0.7
v 1.8 0.2 0.7
v 1.8 0.4 0.7
v 1.8 0.7 0.7
v 1.8 0.8 0.7
v 1.9 0 0.7
v 1.9 0.2 0.7
v 1.9 0.3 0.7
v 1.9 0.4 0.7
v 1.9 0.7 0.7
v 1.9 0.8 0.7
v 2 0.2 0.7
v 2 0.3 0.7
v 2 0.6 0.7
v 2 0.7 0.7
v 2.1 0.4 0.7
v 2.1 0.5 0.7
v 2.1 0.6 0.7
v 2.1 0.7 0.7
v 2.2 0.5 0.7
v 2.2 0.7 0.7
v -0.9 0.5 -0.5
v -0.9 0.7 -0.5
v -0.8 0.4 -0.5
v -0.8 0.5 -0.5
v -0.8 0.6 -0.5
v -0.8 0.7 -0.5
v -0.7 0.2 -0.5
v -0.7 0.3 -0.5
v -0.7 0.6 -0.5
v -0.7 0.7 -0.5
v -0.6 0 -0.5
v -0.6 0.2 -0.5
v -0.6 0.3 -0.5
v -0.6 0.4 -0.5
v -0.6 0.7 -0.5
v -0.6 0.8 -0.5
v -0.5 0 -0.5
v -0.5 0.1 -0.5
v -0.5 0.2 -0.5
v -0.5 0.4 -0.5
v -0.5 0.7 -0.5
v -0.5 0.8 -0.5
v -0.4 0.1 -0.5
v -0.4 0.2 -0.5
v -0.4 0.6 -0.5
v -0.4 0.7 -0.5
v -0.3 0.4 -0.5
v -0.3 0.5 -0.5
v -0.3 0.6 -0.5
v -0.3 0.7 -0.5
v -0.2 0.5 -0.5
v -0.2 0.7 -0.5
v 1.1 0.7 -1.2
v 1.1 0.9 -1.2
v 1.2 0.6 -1.2
v 1.2 0.7 -1.2
v 1.2 0.8 -1.2
v 1.2 0.9 -1.2
v 1.3 0.3 -1.2
v 1.3 0.4 -1.2
v 1.3 0.8 -1.2
v 1.3 0.9 -1.2
v 1.4 0 -1.2
v 1.4 0.3 -1.2
v 1.4 0.4 -1.2
v 1.4 0.6 -1.2
v 1.4 0.9 -1.2
v 1.4 1 -1.2
v 1.5 0 -1.2
v 1.5 0.4 -1.2
v 1.5 0.5 -1.2
v 1.5 0.6 -1.2
v 1.5 0.9 -1.2
v 1.5 1 -1.2
v 1.6 0.4 -1.2
v 1.6 0.5 -1.2
v 1.6 0.8 -1.2
v 1.6 0.9 -1.2
v 1.7 0.6 -1.2
v 1.7 0.7 -1.2
v 1.7 0.8 -1.2
v 1.7 0.9 -1.2
v 1.8 0.7 -1.2
v 1.8 0.9 -1.2
v -1.5 0 1.2
v -1.4 0 1.2
v -1.5 0 1.1
v -1.4 0 1.1
v 1.8 0 0.8
v 1.9 0 0.8
v 1.8 0 0.7
v 1.9 0 0.7
v -0.6 0 -0.4
v -0.5 0 -0.4
v -0.6 0 -0.5
v -0.5 0 -0.5
v 1.4 0 -1.1
v 1.5 0 -1.1
v 1.4 0 -1.2
v 1.5 0 -1.2
v 1.7 0.1 0.8
v 1.8 0.1 0.8
v 1.7 0.1 0.7
v 1.8 0.1 0.7
v -0.5 0.1 -0.4
v -0.4 0.1 -0.4
v -0.5 0.1 -0.5
v -0.4 0.1 -0.5
v -1.4 0.2 1.2
v -1.3 0.2 1.2
v -1.4 0.2 1.1
v -1.3 0.2 1.1
v 1.9 0.2 0.8
v 2 0.2 0.8
v 1.9 0.2 0.7
v 2 0.2 0.7
v -0.7 0.2 -0.4
v -0.6 0.2 -0.4
v -0.7 0.2 -0.5
v -0.6 0.2 -0.5
v -1.6 0.3 1.2
v -1.5 0.3 1.2
v -1.6 0.3 1.1
v -1.5 0.3 1.1
v 1.3 0.3 -1.1
v 1.4 0.3 -1.1
v 1.3 0.3 -1.2
v 1.4 0.3 -1.2
v 1.6 0.4 0.8
v 1.8 0.4 0.8
v 1.9 0.4 0.8
v 2.1 0.4 0.8
v 1.6 0.4 0.7
v 1.8 0.4 0.7
v 1.9 0.4 0.7
v 2.1 0.4 0.7
v -0.8 0.4 -0.4
v -0.6 0.4 -0.4
v -0.5 0.4 -0.4
v -0.3 0.4 -0.4
v -0.8 0.4 -0.5
v -0.6 0.4 -0.5
v -0.5 0.4 -0.5
v -0.3 0.4 -0.5
v 1.5 0.4 -1.1
v 1.6 0.4 -1.1
v 1.5 0.4 -1.2
v 1.6 0.4 -1.2
v -1.7 0.5 1.2
v -1.5 0.5 1.2
v -1.4 0.5 1.2
v -1.2 0.5 1.2
v -1.7 0.5 1.1
v -1.5 0.5 1.1
v -1.4 0.5 1.1
v -1.2 0.5 1.1
v 1.5 0.5 0.8
v 1.6 0.5 0.8
v 2.1 0.5 0.8
v 2.2 0.5 0.8
v 1.5 0.5 0.7
v 1.6 0.5 0.7
v 2.1 0.5 0.7
v 2.2 0.5 0.7
v -0.9 0.5 -0.4
v -0.8 0.5 -0.4
v -0.3 0.5 -0.4
v -0.2 0.5 -0.4
v -0.9 0.5 -0.5
v -0.8 0.5 -0.5
v -0.3 0.5 -0.5
v -0.2 0.5 -0.5
v -1.8 0.6 1.2
v -1.7 0.6 1.2
v -1.2 0.6 1.2
v -1.1 0.6 1.2
v -1.8 0.6 1.1
v -1.7 0.6 1.1
v -1.2 0.6 1.1
v -1.1 0.6 1.1
v 1.2 0.6 -1.1
v 1.4 0.6 -1.1
v 1.5 0.6 -1.1
v 1.7 0.6 -1.1
v 1.2 0.6 -1.2
v 1.4 0.6 -1.2
v 1.5 0.6 -1.2
v 1.7 0.6 -1.2
v 1.1 0.7 -1.1
v 1.2 0.7 -1.1
v 1.7 0.7 -1.1
v 1.8 0.7 -1.1
v 1.1 0.7 -1.2
v 1.2 0.7 -1.2
v 1.7 0.7 -1.2
v 1.8 0.7 -1.2
v 1.7 0.2 0.8
v 1.8 0.2 0.8
v 1.7 0.2 0.7
v 1.8 0.2 0.7
v -0.5 0.2 -0.4
v -0.4 0.2 -0.4
v -0.5 0.2 -0.5
v -0.4 0.2 -0.5
v -1.4 0.3 1.2
v -1.3 0.3 1.2
v -1.4 0.3 1.1
v -1.3 0.3 1.1
v 1.9 0.3 0.8
v 2 0.3 0.8
v 1.9 0.3 0.7
v 2 0.3 0.7
v -0.7 0.3 -0.4
v -0.6 0.3 -0.4
v -0.7 0.3 -0.5
v -0.6 0.3 -0.5
v -1.6 0.4 1.2
v -1.5 0.4 1.2
v -1.6 0.4 1.1
v -1.5 0.4 1.1
v 1.3 0.4 -1.1
v 1.4 0.4 -1.1
v 1.3 0.4 -1.2
v 1.4 0.4 -1.2
v 1.5 0.5 -1.1
v 1.6 0.5 -1.1
v 1.5 0.5 -1.2
v 1.6 0.5 -1.2
v 1.6 0.6 0.8
v 1.7 0.6 0.8
v 2 0.6 0.8
v 2.1 0.6 0.8
v 1.6 0.6 0.7
v 1.7 0.6 0.7
v 2 0.6 0.7
v 2.1 0.6 0.7
v -0.8 0.6 -0.4
v -0.7 0.6 -0.4
v -0.4 0.6 -0.4
v -0.3 0.6 -0.4
v -0.8 0.6 -0.5
v -0.7 0.6 -0.5
v -0.4 0.6 -0.5
v -0.3 0.6 -0.5
v -1.7 0.7 1.2
v -1.6 0.7 1.2
v -1.3 0.7 1.2
v -1.2 0.7 1.2
v -1.7 0.7 1.1
v -1.6 0.7 1.1
v -1.3 0.7 1.1
v -1.2 0.7 1.1
v 1.5 0.7 0.8
v 1.6 0.7 0.8
v 1.7 0.7 0.8
v 1.8 0.7 0.8
v 1.9 0.7 0.8
v 2 0.7 0.8
v 2.1 0.7 0.8
v 2.2 0.7 0.8
v 1.5 0.7 0.7
v 1.6 0.7 0.7
v 1.7 0.7 0.7
v 1.8 0.7 0.7
v 1.9 0.7 0.7
v 2 0.7 0.7
v 2.1 0.7 0.7
v 2.2 0.7 0.7
v -0.9 0.7 -0.4
v -0.8 0.7 -0.4
v -0.7 0.7 -0.4
v -0.6 0.7 -0.4
v -0.5 0.7 -0.4
v -0.4 0.7 -0.4
v -0.3 0.7 -0.4
v -0.2 0.7 -0.4
v -0.9 0.7 -0.5
v -0.8 0.7 -0.5
v -0.7 0.7 -0.5
v -0.6 0.7 -0.5
v -0.5 0.7 -0.5
v -0.4 0.7 -0.5
v -0.3 0.7 -0.5
v -0.2 0.7 -0.5
v -1.8 0.8 1.2
v -1.7 0.8 1.2
v -1.6 0.8 1.2
v -1.5 0.8 1.2
v -1.4 0.8 1.2
v -1.3 0.8 1.2
v -1.2 0.8 1.2
v -1.1 0.8 1.2
v -1.8 0.8 1.1
v -1.7 0.8 1.1
v -1.6 0.8 1.1
v -1.5 0.8 1.1
v -1.4 0.8 1.1
v -1.3 0.8 1.1
v -1.2 0.8 1.1
v -1.1 0.8 1.1
v 1.8 0.8 0.8
v 1.9 0.8 0.8
v 1.8 0.8 0.7
v 1.9 0.8 0.7
v -0.6 0.8 -0.4
v -0.5 0.8 -0.4
v -0.6 0.8 -0.5
v -0.5 0.8 -0.5
v 1.2 0.8 -1.1
v 1.3 0.8 -1.1
v 1.6 0.8 -1.1
v 1.7 0.8 -1.1
v 1.2 0.8 -1.2
v 1.3 0.8 -1.2
v 1.6 0.8 -1.2
v 1.7 0.8 -1.2
v -1.5 0.9 1.2
v -1.4 0.9 1.2
v -1.5 0.9 1.1
v -1.4 0.9 1.1
v 1.1 0.9 -1.1
v 1.2 0.9 -1.1
v 1.3 0.9 -1.1
v 1.4 0.9 -1.1
v 1.5 0.9 -1.1
v 1.6 0.9 -1.1
v 1.7 0.9 -1.1
v 1.8 0.9 -1.1
v 1.1 0.9 -1.2
v 1.2 0.9 -1.2
v 1.3 0.9 -1.2
v 1.4 0.9 -1.2
v 1.5 0.9 -1.2
v 1.6 0.9 -1.2
v 1.7 0.9 -1.2
v 1.8 0.9 -1.2
v 1.4 1 -1.1
v 1.5 1 -1.1
v 1.4 1 -1.2
v 1.5 1 -1.2

# faces
f 3/1/1 2/1/1 1/1/1
f 4/1/1 2/1/1 3/1/1
f 7/1/1 6/1/1 5/1/1
f 8/1/1 6/1/1 7/1/1
f 11/2/1 10/2/1 9/2/1
f 12/2/1 10/2/1 11/2/1
f 15/1/1 14/1/1 13/1/1
f 16/1/1 14/1/1 15/1/1
f 19/2/1 18/2/1 17/2/1
f 20/2/1 18/2/1 19/2/1
f 23/2/1 22/2/1 21/2/1
f 24/2/1 22/2/1 23/2/1
f 27/1/1 26/1/1 25/1/1
f 28/1/1 26/1/1 27/1/1
f 31/1/1 30/1/1 29/1/1
f 32/1/1 30/1/1 31/1/1
f 35/1/1 34/1/1 33/1/1
f 36/1/1 34/1/1 35/1/1
f 39/1/1 38/1/1 37/1/1
f 40/1/1 38/1/1 39/1/1
f 43/2/1 42/2/1 41/2/1
f 44/2/1 42/2/1 43/2/1
f 47/1/1 46/1/1 45/1/1
f 48/1/1 46/1/1 47/1/1
f 51/2/1 50/2/1 49/2/1
f 52/2/1 50/2/1 51/2/1
f 55/2/1 54/2/1 53/2/1
f 56/2/1 54/2/1 55/2/1
f 59/1/1 58/1/1 57/1/1
f 60/1/1 58/1/1 59/1/1
f 63/1/1 62/1/1 61/1/1
f 64/1/1 62/1/1 63/1/1
f 67/1/1 66/1/1 65/1/1
f 68/1/1 66/1/1 67/1/1
f 71/1/1 70/1/1 69/1/1
f 72/1/1 70/1/1 71/1/1
f 75/2/1 74/2/1 73/2/1
f 76/2/1 74/2/1 75/2/1
f 79/1/1 78/1/1 77/1/1
f 80/1/1 78/1/1 79/1/1
f 83/2/1 82/2/1 81/2/1
f 84/2/1 82/2/1 83/2/1
f 87/2/1 86/2/1 85/2/1
f 88/2/1 86/2/1 87/2/1
f 91/1/1 90/1/1 89/1/1
f 92/1/1 90/1/1 91/1/1
f 95/1/1 94/1/1 93/1/1
f 96/1/1 94/1/1 95/1/1
f 99/1/1 98/1/1 97/1/1
f 100/1/1 98/1/1 99/1/1
f 103/2/1 102/2/1 101/2/1
f 104/2/1 102/2/1 103/2/1
f 107/1/1 106/1/1 105/1/1
f 108/1/1 106/1/1 107/1/1
f 111/1/1 110/1/1 109/1/1
f 112/1/1 110/1/1 111/1/1
f 115/2/1 114/2/1 113/2/1
f 116/2/1 114/2/1 115/2/1
f 119/2/1 118/2/1 117/2/1
f 120/2/1 118/2/1 119/2/1
f 123/1/1 122/1/1 121/1/1
f 124/1/1 122/1/1 123/1/1
f 127/1/1 126/1/1 125/1/1
f 128/1/1 126/1/1 127/1/1
f 129/1/2 130/1/2 131/1/2
f 131/1/2 130/1/2 132/1/2
f 133/2/2 134/2/2 135/2/2
f 135/2/2 134/2/2 136/2/2
f 137/2/2 138/2/2 139/2/2
f 139/2/2 138/2/2 140/2/2
f 141/1/2 142/1/2 143/1/2
f 143/1/2 142/1/2 144/1/2
f 145/2/2 146/2/2 147/2/2
f 147/2/2 146/2/2 148/2/2
f 149/1/2 150/1/2 151/1/2
f 151/1/2 150/1/2 152/1/2
f 153/1/2 154/1/2 155/1/2
f 155/1/2 154/1/2 156/1/2
f 157/1/2 158/1/2 159/1/2
f 159/1/2 158/1/2 160/1/2
f 161/1/2 162/1/2 163/1/2
f 163/1/2 162/1/2 164/1/2
f 165/2/2 166/2/2 167/2/2
f 167/2/2 166/2/2 168/2/2
f 169/2/2 170/2/2 171/2/2
f 171/2/2 170/2/2 172/2/2
f 173/1/2 174/1/2 175/1/2
f 175/1/2 174/1/2 176/1/2
f 177/2/2 178/2/2 179/2/2
f 179/2/2 178/2/2 180/2/2
f 181/1/2 182/1/2 183/1/2
f 183/1/2 182/1/2 184/1/2
f 185/1/2 186/1/2 187/1/2
f 187/1/2 186/1/2 188/1/2
f 189/1/2 190/1/2 191/1/2
f 191/1/2 190/1/2 192/1/2
f 193/1/2 194/1/2 195/1/2
f 195/1/2 194/1/2 196/1/2
f 197/2/2 198/2/2 199/2/2
f 199/2/2 198/2/2 200/2/2
f 201/2/2 202/2/2 203/2/2
f 203/2/2 202/2/2 204/2/2
f 205/1/2 206/1/2 207/1/2
f 207/1/2 206/1/2 208/1/2
f 209/2/2 210/2/2 211/2/2
f 211/2/2 210/2/2 212/2/2
f 213/1/2 214/1/2 215/1/2
f 215/1/2 214/1/2 216/1/2
f 217/1/2 218/1/2 219/1/2
f 219/1/2 218/1/2 220/1/2
f 221/1/2 222/1/2 223/1/2
f 223/1/2 222/1/2 224/1/2
f 225/1/2 226/1/2 227/1/2
f 227/1/2 226/1/2 228/1/2
f 229/2/2 230/2/2 231/2/2
f 231/2/2 230/2/2 232/2/2
f 233/2/2 234/2/2 235/2/2
f 235/2/2 234/2/2 236/2/2
f 237/1/2 238/1/2 239/1/2
f 239/1/2 238/1/2 240/1/2
f 241/2/2 242/2/2 243/2/2
f 243/2/2 242/2/2 244/2/2
f 245/1/2 246/1/2 247/1/2
f 247/1/2 246/1/2 248/1/2
f 249/1/2 250/1/2 251/1/2
f 251/1/2 250/1/2 252/1/2
f 253/1/2 254/1/2 255/1/2
f 255/1/2 254/1/2 256/1/2
f 260/1/3 258/1/3 257/1/3
f 261/1/3 258/1/3 260/1/3
f 262/1/3 258/1/3 261/1/3
f 265/1/3 260/1/3 259/1/3
f 265/1/3 261/1/3 260/1/3
f 268/2/3 264/2/3 263/2/3
f 269/2/3 264/2/3 268/2/3
f 270/1/3 266/1/3 265/1/3
f 270/1/3 265/1/3 259/1/3
f 271/1/3 266/1/3 270/1/3
f 273/2/3 269/2/3 268/2/3
f 273/2/3 268/2/3 267/2/3
f 273/2/3 270/2/3 269/2/3
f 274/2/3 270/2/3 273/2/3
f 275/2/3 270/2/3 274/2/3
f 276/1/3 272/1/3 271/1/3
f 276/2/3 270/2/3 275/2/3
f 276/1/3 271/1/3 270/1/3
f 277/1/3 272/1/3 276/1/3
f 278/1/3 272/1/3 277/1/3
f 279/2/3 275/2/3 274/2/3
f 280/2/3 275/2/3 279/2/3
f 281/1/3 277/1/3 276/1/3
f 282/1/3 277/1/3 281/1/3
f 283/1/3 281/1/3 276/1/3
f 284/1/3 281/1/3 283/1/3
f 285/1/3 281/1/3 284/1/3
f 287/1/3 286/1/3 285/1/3
f 287/1/3 285/1/3 284/1/3
f 288/1/3 286/1/3 287/1/3
f 292/1/3 290/1/3 289/1/3
f 293/1/3 290/1/3 292/1/3
f 294/1/3 290/1/3 293/1/3
f 297/1/3 292/1/3 291/1/3
f 297/1/3 293/1/3 292/1/3
f 300/2/3 296/2/3 295/2/3
f 301/2/3 296/2/3 300/2/3
f 302/1/3 298/1/3 297/1/3
f 302/1/3 297/1/3 291/1/3
f 303/1/3 298/1/3 302/1/3
f 305/2/3 301/2/3 300/2/3
f 305/2/3 300/2/3 299/2/3
f 305/2/3 302/2/3 301/2/3
f 306/2/3 302/2/3 305/2/3
f 307/2/3 302/2/3 306/2/3
f 308/1/3 304/1/3 303/1/3
f 308/2/3 302/2/3 307/2/3
f 308/1/3 303/1/3 302/1/3
f 309/1/3 304/1/3 308/1/3
f 310/1/3 304/1/3 309/1/3
f 311/2/3 307/2/3 306/2/3
f 312/2/3 307/2/3 311/2/3
f 313/1/3 309/1/3 308/1/3
f 314/1/3 309/1/3 313/1/3
f 315/1/3 313/1/3 308/1/3
f 316/1/3 313/1/3 315/1/3
f 317/1/3 313/1/3 316/1/3
f 319/1/3 318/1/3 317/1/3
f 319/1/3 317/1/3 316/1/3
f 320/1/3 318/1/3 319/1/3
f 324/1/3 322/1/3 321/1/3
f 325/1/3 322/1/3 324/1/3
f 326/1/3 322/1/3 325/1/3
f 329/1/3 324/1/3 323/1/3
f 329/1/3 325/1/3 324/1/3
f 332/2/3 328/2/3 327/2/3
f 333/2/3 328/2/3 332/2/3
f 334/1/3 330/1/3 329/1/3
f 334/1/3 329/1/3 323/1/3
f 335/1/3 330/1/3 334/1/3
f 337/2/3 333/2/3 332/2/3
f 337/2/3 332/2/3 331/2/3
f 337/2/3 334/2/3 333/2/3
f 338/2/3 334/2/3 337/2/3
f 339/2/3 334/2/3 338/2/3
f 340/1/3 336/1/3 335/1/3
f 340/2/3 334/2/3 339/2/3
f 340/1/3 335/1/3 334/1/3
f 341/1/3 336/1/3 340/1/3
f 342/1/3 336/1/3 341/1/3
f 343/2/3 339/2/3 338/2/3
f 344/2/3 339/2/3 343/2/3
f 345/1/3 341/1/3 340/1/3
f 346/1/3 341/1/3 345/1/3
f 347/1/3 345/1/3 340/1/3
f 348/1/3 345/1/3 347/1/3
f 349/1/3 345/1/3 348/1/3
f 351/1/3 350/1/3 349/1/3
f 351/1/3 349/1/3 348/1/3
f 352/1/3 350/1/3 351/1/3
f 356/1/3 354/1/3 353/1/3
f 357/1/3 354/1/3 356/1/3
f 358/1/3 354/1/3 357/1/3
f 361/1/3 356/1/3 355/1/3
f 361/1/3 357/1/3 356/1/3
f 364/2/3 360/2/3 359/2/3
f 365/2/3 360/2/3 364/2/3
f 366/1/3 362/1/3 361/1/3
f 366/1/3 361/1/3 355/1/3
f 367/1/3 362/1/3 366/1/3
f 369/2/3 365/2/3 364/2/3
f 369/2/3 364/2/3 363/2/3
f 369/2/3 366/2/3 365/2/3
f 370/2/3 366/2/3 369/2/3
f 371/2/3 366/2/3 370/2/3
f 372/1/3 368/1/3 367/1/3
f 372/2/3 366/2/3 371/2/3
f 372/1/3 367/1/3 366/1/3
f 373/1/3 368/1/3 372/1/3
f 374/1/3 368/1/3 373/1/3
f 375/2/3 371/2/3 370/2/3
f 376/2/3 371/2/3 375/2/3
f 377/1/3 373/1/3 372/1/3
f 378/1/3 373/1/3 377/1/3
f 379/1/3 377/1/3 372/1/3
f 380/1/3 377/1/3 379/1/3
f 381/1/3 377/1/3 380/1/3
f 383/1/3 382/1/3 381/1/3
f 383/1/3 381/1/3 380/1/3
f 384/1/3 382/1/3 383/1/3
f 385/1/4 386/1/4 388/1/4
f 388/1/4 386/1/4 389/1/4
f 389/1/4 386/1/4 390/1/4
f 387/1/4 388/1/4 393/1/4
f 388/1/4 389/1/4 393/1/4
f 391/2/4 392/2/4 396/2/4
f 396/2/4 392/2/4 397/2/4
f 393/1/4 394/1/4 398/1/4
f 387/1/4 393/1/4 398/1/4
f 398/1/4 394/1/4 399/1/4
f 396/2/4 397/2/4 401/2/4
f 395/2/4 396/2/4 401/2/4
f 397/2/4 398/2/4 401/2/4
f 401/2/4 398/2/4 402/2/4
f 402/2/4 398/2/4 403/2/4
f 399/1/4 400/1/4 404/1/4
f 403/2/4 398/2/4 404/2/4
f 398/1/4 399/1/4 404/1/4
f 404/1/4 400/1/4 405/1/4
f 405/1/4 400/1/4 406/1/4
f 402/2/4 403/2/4 407/2/4
f 407/2/4 403/2/4 408/2/4
f 404/1/4 405/1/4 409/1/4
f 409/1/4 405/1/4 410/1/4
f 404/1/4 409/1/4 411/1/4
f 411/1/4 409/1/4 412/1/4
f 412/1/4 409/1/4 413/1/4
f 413/1/4 414/1/4 415/1/4
f 412/1/4 413/1/4 415/1/4
f 415/1/4 414/1/4 416/1/4
f 417/1/4 418/1/4 420/1/4
f 420/1/4 418/1/4 421/1/4
f 421/1/4 418/1/4 422/1/4
f 419/1/4 420/1/4 425/1/4
f 420/1/4 421/1/4 425/1/4
f 423/2/4 424/2/4 428/2/4
f 428/2/4 424/2/4 429/2/4
f 425/1/4 426/1/4 430/1/4
f 419/1/4 425/1/4 430/1/4
f 430/1/4 426/1/4 431/1/4
f 428/2/4 429/2/4 433/2/4
f 427/2/4 428/2/4 433/2/4
f 429/2/4 430/2/4 433/2/4
f 433/2/4 430/2/4 434/2/4
f 434/2/4 430/2/4 435/2/4
f 431/1/4 432/1/4 436/1/4
f 435/2/4 430/2/4 436/2/4
f 430/1/4 431/1/4 436/1/4
f 436/1/4 432/1/4 437/1/4
f 437/1/4 432/1/4 438/1/4
f 434/2/4 435/2/4 439/2/4
f 439/2/4 435/2/4 440/2/4
f 436/1/4 437/1/4 441/1/4
f 441/1/4 437/1/4 442/1/4
f 436/1/4 441/1/4 443/1/4
f 443/1/4 441/1/4 444/1/4
f 444/1/4 441/1/4 445/1/4
f 445/1/4 446/1/4 447/1/4
f 444/1/4 445/1/4 447/1/4
f 447/1/4 446/1/4 448/1/4
f 449/1/4 450/1/4 452/1/4
f 452/1/4 450/1/4 453/1/4
f 453/1/4 450/1/4 454/1/4
f 451/1/4 452/1/4 457/1/4
f 452/1/4 453/1/4 457/1/4
f 455/2/4 456/2/4 460/2/4
f 460/2/4 456/2/4 461/2/4
f 457/1/4 458/1/4 462/1/4
f 451/1/4 457/1/4 462/1/4
f 462/1/4 458/1/4 463/1/4
f 460/2/4 461/2/4 465/2/4
f 459/2/4 460/2/4 465/2/4
f 461/2/4 462/2/4 465/2/4
f 465/2/4 462/2/4 466/2/4
f 466/2/4 462/2/4 467/2/4
f 463/1/4 464/1/4 468/1/4
f 467/2/4 462/2/4 468/2/4
f 462/1/4 463/1/4 468/1/4
f 468/1/4 464/1/4 469/1/4
f 469/1/4 464/1/4 470/1/4
f 466/2/4 467/2/4 471/2/4
f 471/2/4 467/2/4 472/2/4
f 468/1/4 469/1/4 473/1/4
f 473/1/4 469/1/4 474/1/4
f 468/1/4 473/1/4 475/1/4
f 475/1/4 473/1/4 476/1/4
f 476/1/4 473/1/4 477/1/4
f 477/1/4 478/1/4 479/1/4
f 476/1/4 477/1/4 479/1/4
f 479/1/4 478/1/4 480/1/4
f 481/1/4 482/1/4 484/1/4
f 484/1/4 482/1/4 485/1/4
f 485/1/4 482/1/4 486/1/4
f 483/1/4 484/1/4 489/1/4
f 484/1/4 485/1/4 489/1/4
f 487/2/4 488/2/4 492/2/4
f 492/2/4 488/2/4 493/2/4
f 489/1/4 490/1/4 494/1/4
f 483/1/4 489/1/4 494/1/4
f 494/1/4 490/1/4 495/1/4
f 492/2/4 493/2/4 497/2/4
f 491/2/4 492/2/4 497/2/4
f 493/2/4 494/2/4 497/2/4
f 497/2/4 494/2/4 498/2/4
f 498/2/4 494/2/4 499/2/4
f 495/1/4 496/1/4 500/1/4
f 499/2/4 494/2/4 500/2/4
f 494/1/4 495/1/4 500/1/4
f 500/1/4 496/1/4 501/1/4
f 501/1/4 496/1/4 502/1/4
f 498/2/4 499/2/4 503/2/4
f 503/2/4 499/2/4 504/2/4
f 500/1/4 501/1/4 505/1/4
f 505/1/4 501/1/4 506/1/4
f 500/1/4 505/1/4 507/1/4
f 507/1/4 505/1/4 508/1/4
f 508/1/4 505/1/4 509/1/4
f 509/1/4 510/1/4 511/1/4
f 508/1/4 509/1/4 511/1/4
f 511/1/4 510/1/4 512/1/4
f 515/2/5 514/2/5 513/2/5
f 516/2/5 514/2/5 515/2/5
f 519/2/5 518/2/5 517/2/5
f 520/2/5 518/2/5 519/2/5
f 523/2/5 522/2/5 521/2/5
f 524/2/5 522/2/5 523/2/5
f 527/2/5 526/2/5 525/2/5
f 528/2/5 526/2/5 527/2/5
f 531/2/5 530/2/5 529/2/5
f 532/2/5 530/2/5 531/2/5
f 535/2/5 534/2/5 533/2/5
f 536/2/5 534/2/5 535/2/5
f 539/2/5 538/2/5 537/2/5
f 540/2/5 538/2/5 539/2/5
f 543/2/5 542/2/5 541/2/5
f 544/2/5 542/2/5 543/2/5
f 547/2/5 546/2/5 545/2/5
f 548/2/5 546/2/5 547/2/5
f 551/2/5 550/2/5 549/2/5
f 552/2/5 550/2/5 551/2/5
f 555/2/5 554/2/5 553/2/5
f 556/2/5 554/2/5 555/2/5
f 561/1/5 558/1/5 557/1/5
f 562/1/5 558/1/5 561/1/5
f 563/1/5 560/1/5 559/1/5
f 564/1/5 560/1/5 563/1/5
f 569/1/5 566/1/5 565/1/5
f 570/1/5 566/1/5 569/1/5
f 571/1/5 568/1/5 567/1/5
f 572/1/5 568/1/5 571/1/5
f 575/2/5 574/2/5 573/2/5
f 576/2/5 574/2/5 575/2/5
f 581/1/5 578/1/5 577/1/5
f 582/1/5 578/1/5 581/1/5
f 583/1/5 580/1/5 579/1/5
f 584/1/5 580/1/5 583/1/5
f 589/1/5 586/1/5 585/1/5
f 590/1/5 586/1/5 589/1/5
f 591/1/5 588/1/5 587/1/5
f 592/1/5 588/1/5 591/1/5
f 597/1/5 594/1/5 593/1/5
f 598/1/5 594/1/5 597/1/5
f 599/1/5 596/1/5 595/1/5
f 600/1/5 596/1/5 599/1/5
f 605/1/5 602/1/5 601/1/5
f 606/1/5 602/1/5 605/1/5
f 607/1/5 604/1/5 603/1/5
f 608/1/5 604/1/5 607/1/5
f 613/1/5 610/1/5 609/1/5
f 614/1/5 610/1/5 613/1/5
f 615/1/5 612/1/5 611/1/5
f 616/1/5 612/1/5 615/1/5
f 621/1/5 618/1/5 617/1/5
f 622/1/5 618/1/5 621/1/5
f 623/1/5 620/1/5 619/1/5
f 624/1/5 620/1/5 623/1/5
f 625/2/6 626/2/6 627/2/6
f 627/2/6 626/2/6 628/2/6
f 629/2/6 630/2/6 631/2/6
f 631/2/6 630/2/6 632/2/6
f 633/2/6 634/2/6 635/2/6
f 635/2/6 634/2/6 636/2/6
f 637/2/6 638/2/6 639/2/6
f 639/2/6 638/2/6 640/2/6
f 641/2/6 642/2/6 643/2/6
f 643/2/6 642/2/6 644/2/6
f 645/2/6 646/2/6 647/2/6
f 647/2/6 646/2/6 648/2/6
f 649/2/6 650/2/6 651/2/6
f 651/2/6 650/2/6 652/2/6
f 653/2/6 654/2/6 655/2/6
f 655/2/6 654/2/6 656/2/6
f 657/1/6 658/1/6 661/1/6
f 661/1/6 658/1/6 662/1/6
f 659/1/6 660/1/6 663/1/6
f 663/1/6 660/1/6 664/1/6
f 665/1/6 666/1/6 669/1/6
f 669/1/6 666/1/6 670/1/6
f 667/1/6 668/1/6 671/1/6
f 671/1/6 668/1/6 672/1/6
f 673/1/6 674/1/6 677/1/6
f 677/1/6 674/1/6 678/1/6
f 675/1/6 676/1/6 679/1/6
f 679/1/6 676/1/6 680/1/6
f 681/1/6 682/1/6 689/1/6
f 689/1/6 682/1/6 690/1/6
f 683/1/6 684/1/6 691/1/6
f 691/1/6 684/1/6 692/1/6
f 685/1/6 686/1/6 693/1/6
f 693/1/6 686/1/6 694/1/6
f 687/1/6 688/1/6 695/1/6
f 695/1/6 688/1/6 696/1/6
f 697/1/6 698/1/6 705/1/6
f 705/1/6 698/1/6 706/1/6
f 699/1/6 700/1/6 707/1/6
f 707/1/6 700/1/6 708/1/6
f 701/1/6 702/1/6 709/1/6
f 709/1/6 702/1/6 710/1/6
f 703/1/6 704/1/6 711/1/6
f 711/1/6 704/1/6 712/1/6
f 713/1/6 714/1/6 721/1/6
f 721/1/6 714/1/6 722/1/6
f 715/1/6 716/1/6 723/1/6
f 723/1/6 716/1/6 724/1/6
f 717/1/6 718/1/6 725/1/6
f 725/1/6 718/1/6 726/1/6
f 719/1/6 720/1/6 727/1/6
f 727/1/6 720/1/6 728/1/6
f 729/1/6 730/1/6 731/1/6
f 731/1/6 730/1/6 732/1/6
f 733/1/6 734/1/6 735/1/6
f 735/1/6 734/1/6 736/1/6
f 737/1/6 738/1/6 741/1/6
f 741/1/6 738/1/6 742/1/6
f 739/1/6 740/1/6 743/1/6
f 743/1/6 740/1/6 744/1/6
f 745/1/6 746/1/6 747/1/6
f 747/1/6 746/1/6 748/1/6
f 749/1/6 750/1/6 757/1/6
f 757/1/6 750/1/6 758/1/6
f 751/1/6 752/1/6 759/1/6
f 759/1/6 752/1/6 760/1/6
f 753/1/6 754/1/6 761/1/6
f 761/1/6 754/1/6 762/1/6
f 755/1/6 756/1/6 763/1/6
f 763/1/6 756/1/6 764/1/6
f 765/1/6 766/1/6 767/1/6
f 767/1/6 766/1/6 768/1/6
